<svg xmlns="http://www.w3.org/2000/svg" viewBox="0 0 64 64">
  <rect
    width="64"
    height="64"
    rx="14"
    fill="#2563eb"
  />

  <!-- Left page -->
  <path
    d="M10 14
       C20 11 28 14 32 19
       V52
       C27 47 19 45 10 47
       Z"
    fill="white"
  />

  <!-- Right page -->
  <path
    d="M54 14
       C44 11 36 14 32 19
       V52
       C37 47 45 45 54 47
       Z"
    fill="white"
  />

  <!-- Center -->
  <path
    d="M32 19V52"
    stroke="#2563eb"
    stroke-width="2"
  />

  <!-- Left page lines -->
  <path
    d="M15 21C21 20 26 22 29 25"
    stroke="#94a3b8"
    stroke-width="2"
    fill="none"
    stroke-linecap="round"
  />

  <path
    d="M15 29C21 28 26 30 29 33"
    stroke="#94a3b8"
    stroke-width="2"
    fill="none"
    stroke-linecap="round"
  />

  <!-- Right page lines -->
  <path
    d="M49 21C43 20 38 22 35 25"
    stroke="#94a3b8"
    stroke-width="2"
    fill="none"
    stroke-linecap="round"
  />

  <path
    d="M49 29C43 28 38 30 35 33"
    stroke="#94a3b8"
    stroke-width="2"
    fill="none"
    stroke-linecap="round"
  />
</svg>